<?xml version="1.0" encoding="utf-8"?>
<!-- Generator: Adobe Illustrator 21.1.0, SVG Export Plug-In . SVG Version: 6.00 Build 0)  -->
<svg version="1.1" xmlns="http://www.w3.org/2000/svg" xmlns:xlink="http://www.w3.org/1999/xlink" x="0px" y="0px"
	 viewBox="0 0 512 512" style="enable-background:new 0 0 512 512;" xml:space="preserve">
<style type="text/css">
	.st0{display:none;}
	.st1{display:inline;fill:#FFAA00;stroke:#FCFCFC;stroke-width:15.4176;stroke-miterlimit:10;}
	.st2{fill:none;stroke:#000000;stroke-width:7.9909;stroke-linecap:round;stroke-miterlimit:10;}
	.st3{fill:none;stroke:#000000;stroke-width:7.9909;stroke-linecap:round;stroke-miterlimit:10;stroke-dasharray:28.1586,28.1586;}
	.st4{fill:#594949;}
	.st5{fill:#6B0303;stroke:#F9F9F9;stroke-width:6.1029;stroke-miterlimit:10;}
	.st6{font-family:'ArialMT';}
	.st7{font-size:227.3791px;}
</style>
<g id="Layer_3" class="st0">
	<path class="st1" d="M376.2,296.6c29.4-30.4,47.4-71.8,47.4-117.5C423.7,85.7,347.9,10,254.5,10S85.3,85.7,85.3,179.2
		c0,45.6,18.1,87,47.4,117.5h0l0,0c2.8,2.9,5.6,5.6,8.6,8.3l108.8,105l108.2-97.3C364.7,307.7,370.7,302.4,376.2,296.6L376.2,296.6
		L376.2,296.6z"/>
</g>
<g id="Layer_4">
	<g>
		<g>
			<line class="st2" x1="262.9" y1="250.9" x2="262.9" y2="264.3"/>
			<line class="st3" x1="262.9" y1="292.4" x2="262.9" y2="447.3"/>
			<line class="st2" x1="262.9" y1="461.4" x2="262.9" y2="474.7"/>
		</g>
	</g>
	<circle class="st4" cx="263.6" cy="441.4" r="46.6"/>
</g>
<g id="Layer_1">
	<text transform="matrix(0.878 0 0 1 190 229.0874)" class="st5 st6 st7">K</text>
</g>
<g id="number">
</g>
</svg>
